<svg xmlns="http://www.w3.org/2000/svg" xmlns:xlink="http://www.w3.org/1999/xlink" width="500" zoomAndPan="magnify" viewBox="0 0 375 374.999991" height="500" preserveAspectRatio="xMidYMid meet" version="1.0"><defs><clipPath id="c7b7f1e380"><path d="M 61 103 L 157.128906 103 L 157.128906 106 L 61 106 Z M 61 103 " clip-rule="nonzero"/></clipPath><clipPath id="e57147e650"><path d="M 22.878906 118 L 47 118 L 47 121 L 22.878906 121 Z M 22.878906 118 " clip-rule="nonzero"/></clipPath></defs><rect x="-37.5" width="450" fill="#ffffff" y="-37.499999" height="449.999989" fill-opacity="1"/><rect x="-37.5" width="450" fill="#ffffff" y="-37.499999" height="449.999989" fill-opacity="1"/><rect x="-37.5" width="450" fill="#ffffff" y="-37.499999" height="449.999989" fill-opacity="1"/><path fill="#ffffff" d="M 75.636719 298.390625 C 75.308594 298.804688 75.226562 299.21875 75.226562 299.714844 C 74.8125 306.402344 74.234375 313.011719 74.566406 319.703125 C 74.894531 326.308594 74.316406 332.917969 74.566406 339.527344 C 74.648438 343.410156 75.308594 347.207031 76.546875 350.84375 C 78.113281 355.550781 81.085938 359.101562 84.886719 362.324219 C 87.941406 364.886719 91.40625 366.535156 95.125 367.777344 C 96.113281 368.105469 97.105469 368.519531 98.097656 368.851562 C 98.757812 369.097656 99.335938 369.429688 99.828125 370.007812 C 100.902344 371.246094 100.324219 372.730469 98.839844 373.308594 C 94.792969 374.878906 90.832031 374.464844 86.785156 373.476562 C 82.65625 372.484375 78.445312 371.824219 74.152344 371.988281 C 72.089844 372.070312 70.105469 372.234375 68.042969 372.320312 C 62.511719 372.484375 59.867188 369.839844 59.867188 364.222656 C 59.867188 361.003906 60.527344 357.945312 61.023438 354.890625 C 62.015625 349.109375 62.179688 343.324219 61.683594 337.460938 C 61.273438 333.167969 60.941406 328.871094 60.613281 324.574219 C 60.117188 317.886719 58.960938 311.359375 57.0625 305 C 55.328125 299.382812 54.585938 293.601562 54.585938 287.734375 C 54.585938 283.855469 54.417969 280.054688 54.832031 276.171875 C 55.328125 271.875 56.316406 267.664062 57.472656 263.535156 C 58.546875 259.734375 59.371094 255.933594 59.042969 251.96875 C 58.796875 248.832031 57.96875 245.773438 57.144531 242.71875 C 55.824219 237.433594 54.996094 232.0625 54.417969 226.695312 C 54.007812 222.5625 53.839844 218.433594 53.921875 214.304688 C 54.007812 211.082031 54.171875 207.859375 54.75 204.722656 C 54.996094 203.070312 54.667969 201.5 54.253906 199.847656 C 53.675781 197.535156 52.601562 195.386719 51.777344 193.074219 C 50.621094 189.773438 49.878906 186.300781 49.628906 182.832031 C 49.464844 179.199219 50.207031 175.648438 51.035156 172.09375 C 52.4375 166.5625 54.914062 161.441406 57.390625 156.402344 C 58.628906 154.003906 59.621094 151.527344 60.695312 149.050781 C 61.355469 147.5625 61.4375 145.992188 61.683594 144.421875 C 62.59375 138.890625 62.179688 133.355469 61.273438 127.820312 C 60.199219 121.296875 58.464844 114.851562 56.648438 108.410156 C 56.566406 108.246094 56.484375 108.164062 56.316406 107.996094 C 55.90625 107.996094 55.824219 108.246094 55.738281 108.492188 C 54.253906 114.605469 51.859375 120.46875 50.539062 126.664062 C 49.628906 130.960938 48.472656 135.171875 47.980469 139.550781 C 47.730469 141.78125 47.566406 144.09375 47.320312 146.324219 C 46.824219 150.703125 45.832031 154.914062 44.925781 159.210938 C 43.023438 168.210938 43.4375 177.050781 46.410156 185.808594 C 48.308594 191.339844 49.382812 196.957031 49.300781 202.824219 C 49.300781 203.152344 49.300781 203.402344 49.300781 203.730469 C 49.300781 204.308594 48.886719 204.640625 48.472656 204.722656 C 48.0625 204.804688 47.730469 204.472656 47.484375 204.0625 C 47.234375 203.566406 47.070312 203.070312 46.90625 202.574219 C 46.824219 202.246094 46.824219 201.832031 46.328125 201.75 C 45.503906 204.804688 45.089844 207.945312 44.839844 211.164062 C 44.839844 211.414062 44.839844 211.660156 44.757812 211.824219 C 44.511719 212.980469 43.519531 213.3125 42.695312 212.570312 C 40.21875 210.175781 38.648438 207.367188 38.152344 203.894531 C 37.660156 200.507812 37.410156 197.039062 37.410156 193.570312 C 37.492188 187.292969 37.574219 181.015625 37.574219 174.820312 C 37.574219 168.378906 36.667969 162.019531 35.925781 155.65625 C 35.179688 149.214844 35.097656 142.773438 35.925781 136.246094 C 36.585938 131.539062 37.574219 126.914062 38.648438 122.371094 C 38.8125 121.707031 39.0625 121.046875 38.8125 120.304688 C 39.886719 120.222656 40.960938 120.140625 42.035156 120.304688 C 41.953125 120.800781 41.953125 121.214844 41.871094 121.707031 C 41.125 124.929688 40.300781 128.152344 39.640625 131.457031 C 38.484375 136.90625 37.660156 142.441406 37.742188 148.140625 C 37.742188 149.957031 37.90625 151.773438 38.152344 153.59375 C 38.484375 156.234375 38.648438 158.960938 38.980469 161.605469 C 39.476562 165.570312 39.96875 169.617188 39.96875 173.664062 C 39.96875 180.191406 39.886719 186.632812 39.886719 193.15625 C 39.886719 196.875 39.886719 200.675781 40.714844 204.308594 C 41.125 206.210938 41.785156 207.945312 43.023438 209.597656 C 43.6875 207.777344 43.4375 205.878906 43.851562 204.144531 C 44.265625 202.160156 44.347656 200.097656 45.171875 198.195312 C 45.832031 196.710938 45.832031 196.710938 47.402344 197.289062 C 47.402344 197.371094 47.484375 197.453125 47.484375 197.535156 C 47.484375 197.453125 47.566406 197.453125 47.566406 197.371094 C 47.484375 197.371094 47.402344 197.289062 47.320312 197.289062 C 47.320312 197.039062 47.402344 196.792969 47.402344 196.628906 C 47.234375 193.820312 46.410156 191.09375 45.585938 188.449219 C 44.265625 184.238281 42.941406 180.023438 42.53125 175.5625 C 42.199219 171.847656 42.199219 168.046875 42.53125 164.332031 C 42.859375 160.945312 43.6875 157.722656 44.347656 154.417969 C 45.007812 150.949219 45.75 147.480469 45.832031 143.84375 C 45.914062 140.375 46.082031 136.988281 46.492188 133.519531 C 47.152344 128.398438 48.558594 123.359375 50.289062 118.488281 C 51.613281 114.605469 53.511719 111.054688 54.75 107.089844 C 54.996094 106.425781 55.328125 105.765625 55.574219 105.1875 C 55.738281 104.777344 55.988281 104.527344 56.484375 104.527344 C 56.980469 104.527344 57.226562 104.777344 57.390625 105.1875 C 57.554688 105.4375 57.640625 105.683594 57.722656 106.015625 C 59.703125 111.136719 61.851562 116.175781 62.921875 121.542969 C 64.160156 127.65625 65.316406 133.769531 64.824219 140.128906 C 64.574219 143.761719 63.832031 147.316406 62.675781 150.703125 C 61.683594 153.757812 60.199219 156.730469 58.546875 159.539062 C 55.988281 163.917969 54.171875 168.542969 52.851562 173.417969 C 52.105469 176.390625 51.53125 179.363281 51.777344 182.421875 C 51.941406 185.144531 52.355469 187.871094 53.179688 190.515625 C 53.839844 192.664062 54.585938 194.808594 55.738281 196.792969 C 57.144531 199.105469 57.804688 201.75 57.144531 204.558594 C 56.566406 207.035156 56.152344 209.511719 55.988281 211.992188 C 55.492188 219.34375 55.988281 226.527344 57.226562 233.796875 C 57.96875 238.011719 59.042969 242.058594 60.035156 246.1875 C 60.777344 249.328125 61.355469 252.464844 61.023438 255.6875 C 60.695312 259.15625 59.949219 262.625 58.878906 265.929688 C 57.640625 270.058594 56.8125 274.1875 56.566406 278.484375 C 56.316406 282.863281 56.484375 287.238281 56.566406 291.617188 C 56.648438 293.519531 56.894531 295.335938 57.0625 297.152344 C 57.308594 300.292969 58.628906 303.097656 59.457031 306.074219 C 59.703125 307.0625 60.035156 307.972656 60.035156 308.964844 C 59.949219 310.449219 60.199219 311.855469 60.527344 313.257812 C 61.683594 318.296875 62.015625 323.417969 62.429688 328.539062 C 62.675781 332.175781 63.003906 335.726562 63.335938 339.359375 C 63.832031 345.144531 63.335938 350.925781 62.34375 356.625 C 61.851562 359.515625 61.273438 362.488281 61.4375 365.464844 C 61.601562 368.683594 63.171875 370.253906 66.308594 370.5 C 68.042969 370.667969 69.777344 370.417969 71.511719 370.335938 C 77.289062 370.007812 82.988281 370.832031 88.683594 371.90625 C 91.078125 372.402344 93.390625 372.234375 95.867188 371.246094 C 94.710938 370.667969 93.71875 370.171875 92.730469 369.675781 C 88.765625 367.777344 84.886719 365.628906 81.746094 362.40625 C 79.601562 360.175781 77.539062 358.027344 76.132812 355.304688 C 73.574219 350.347656 72.335938 344.976562 72.335938 339.445312 C 72.253906 326.972656 72.335938 314.5 72.335938 302.027344 C 72.335938 300.871094 72.335938 299.714844 72.335938 298.554688 C 73.738281 297.976562 74.730469 298.144531 75.636719 298.390625 Z M 75.636719 298.390625 " fill-opacity="1" fill-rule="nonzero"/><path fill="#ffffff" d="M 39.722656 118.652344 C 41.125 112.375 41.457031 105.933594 42.613281 99.652344 C 43.6875 93.953125 44.839844 88.339844 46.742188 82.886719 C 48.144531 78.839844 50.539062 75.453125 53.261719 72.230469 C 55.65625 69.339844 58.464844 66.863281 60.859375 63.972656 C 63.089844 61.246094 64.65625 58.269531 65.234375 54.71875 C 65.484375 53.148438 65.070312 51.582031 64.988281 50.011719 C 64.988281 49.597656 64.574219 49.351562 64.246094 49.019531 C 62.511719 46.953125 60.695312 44.972656 58.960938 42.90625 C 56.316406 39.769531 54.253906 36.21875 53.347656 32.167969 C 52.601562 28.617188 53.179688 25.3125 54.585938 22.09375 C 55.164062 20.851562 55.738281 19.53125 56.316406 18.292969 C 56.8125 17.21875 56.980469 16.0625 56.980469 14.90625 C 57.0625 14.164062 56.730469 13.832031 56.070312 13.667969 C 53.675781 12.839844 50.621094 13.996094 48.886719 15.980469 C 46.082031 19.203125 46.246094 22.585938 47.8125 26.140625 C 49.21875 29.445312 50.867188 32.582031 52.273438 35.804688 C 53.347656 38.117188 54.253906 40.59375 54.089844 43.238281 C 54.007812 44.726562 53.839844 46.128906 53.261719 47.535156 C 52.105469 50.507812 50.457031 53.316406 48.722656 55.957031 C 47.980469 57.113281 46.824219 57.199219 45.667969 57.28125 C 44.839844 57.363281 44.429688 56.621094 44.347656 55.875 C 44.265625 55.214844 44.265625 54.554688 44.265625 53.976562 C 44.429688 48.359375 42.695312 43.402344 39.308594 38.941406 C 38.070312 37.289062 36.832031 35.722656 35.511719 34.152344 C 31.382812 29.03125 30.0625 23.25 31.382812 16.886719 C 31.632812 15.566406 31.878906 14.246094 32.292969 13.007812 C 34.273438 7.554688 38.238281 4.25 43.4375 2.019531 C 47.980469 0.121094 52.4375 0.367188 56.894531 2.351562 C 59.949219 3.671875 63.003906 5.078125 65.152344 7.71875 C 65.566406 8.214844 66.144531 8.214844 66.722656 8.378906 C 69.28125 8.957031 71.839844 8.710938 74.398438 8.628906 C 77.949219 8.546875 81.253906 8.957031 84.140625 11.1875 C 85.464844 12.179688 86.621094 13.417969 87.609375 14.660156 C 88.683594 16.0625 89.675781 17.464844 90.664062 18.871094 C 92.480469 21.347656 93.636719 24.15625 94.050781 27.214844 C 94.296875 29.277344 95.453125 30.847656 96.773438 32.335938 C 97.269531 32.914062 97.847656 33.410156 98.34375 33.988281 C 100.242188 36.050781 99.914062 38.035156 97.519531 39.4375 C 97.351562 39.519531 97.105469 39.605469 96.941406 39.933594 C 97.929688 41.171875 97.1875 42.742188 97.765625 44.230469 C 98.097656 44.972656 97.519531 45.714844 96.855469 46.210938 C 95.289062 47.203125 95.125 48.523438 95.785156 50.175781 C 95.949219 50.589844 96.03125 51.085938 96.03125 51.582031 C 96.03125 52.570312 95.535156 53.316406 94.628906 53.644531 C 92.648438 54.304688 90.582031 54.71875 88.4375 54.554688 C 87.03125 54.390625 85.628906 54.472656 84.226562 54.636719 C 82.65625 54.800781 81.664062 55.710938 81.171875 57.113281 C 80.839844 57.941406 80.507812 58.765625 80.675781 59.675781 C 79.601562 59.839844 78.445312 59.839844 77.371094 59.675781 C 77.949219 58.683594 78.199219 57.527344 78.527344 56.371094 C 79.269531 53.726562 81.085938 52.242188 83.730469 51.746094 C 84.636719 51.582031 85.628906 51.664062 86.535156 51.664062 C 88.4375 51.664062 90.417969 51.746094 92.316406 51.664062 C 93.554688 51.582031 93.886719 51.167969 93.554688 50.09375 C 92.894531 48.027344 93.308594 46.460938 95.289062 45.304688 C 95.785156 44.972656 96.195312 44.558594 95.617188 43.898438 C 95.207031 43.402344 95.371094 42.90625 95.867188 42.578125 C 96.445312 42.164062 96.363281 41.585938 96.113281 41.007812 C 95.289062 38.777344 95.289062 38.777344 97.269531 37.703125 C 97.433594 37.621094 97.601562 37.539062 97.519531 37.289062 C 96.609375 35.722656 95.617188 34.398438 93.886719 33.65625 C 93.058594 33.324219 92.480469 32.582031 92.152344 31.675781 C 91.738281 30.515625 91.242188 29.445312 91.160156 28.121094 C 90.996094 26.222656 90.664062 24.238281 89.589844 22.585938 C 87.773438 19.695312 85.546875 17.21875 83.316406 14.660156 C 81.085938 12.097656 77.949219 11.105469 74.566406 10.941406 C 73.242188 10.859375 71.839844 10.859375 70.519531 10.941406 C 68.539062 11.023438 66.636719 10.363281 64.574219 10.695312 C 63.582031 10.859375 62.511719 10.363281 62.097656 9.371094 C 61.519531 8.214844 60.445312 7.554688 59.457031 6.976562 C 57.0625 5.570312 54.5 4.5 51.859375 4.003906 C 48.472656 3.34375 45.253906 4.332031 42.28125 5.984375 C 38.484375 8.050781 35.675781 10.941406 34.605469 15.320312 C 34.273438 16.886719 34.027344 18.375 33.859375 19.945312 C 33.449219 23.828125 34.191406 27.460938 36.503906 30.683594 C 37.660156 32.335938 38.980469 33.902344 40.300781 35.472656 C 43.355469 39.191406 45.75 43.320312 46.824219 48.113281 C 47.070312 49.351562 47.234375 50.507812 47.566406 52.160156 C 49.050781 49.269531 50.867188 47.039062 51.53125 44.230469 C 51.777344 43.074219 52.023438 41.917969 51.859375 40.761719 C 51.53125 38.53125 50.867188 36.464844 49.960938 34.480469 C 48.804688 32.085938 47.648438 29.691406 46.574219 27.214844 C 44.925781 23.578125 44.511719 19.945312 46.65625 16.144531 C 48.308594 13.335938 52.191406 11.1875 55.328125 11.933594 C 57.640625 12.429688 58.628906 13.75 58.710938 16.144531 C 58.710938 17.136719 58.628906 18.128906 58.21875 19.035156 C 57.640625 20.359375 57.0625 21.679688 56.484375 23 C 54.75 26.71875 54.585938 30.433594 56.070312 34.234375 C 56.894531 36.464844 58.21875 38.53125 59.703125 40.429688 C 61.519531 42.660156 63.582031 44.640625 65.648438 46.625 C 66.226562 47.203125 66.804688 47.78125 67.050781 48.605469 C 68.207031 52.40625 67.878906 56.042969 66.308594 59.675781 C 64.574219 63.722656 61.765625 67.027344 58.710938 70.082031 C 53.839844 75.039062 49.878906 80.410156 47.980469 87.265625 C 46.078125 94.203125 44.839844 101.222656 44.097656 108.328125 C 43.6875 111.878906 43.273438 115.347656 42.695312 118.898438 C 41.703125 118.898438 40.714844 118.984375 39.722656 118.652344 Z M 39.722656 118.652344 " fill-opacity="1" fill-rule="nonzero"/><path fill="#ffffff" d="M 89.34375 223.554688 C 88.847656 225.207031 88.269531 226.859375 87.773438 228.511719 C 86.207031 233.300781 84.472656 238.09375 82.324219 242.71875 C 80.34375 246.847656 79.4375 251.226562 79.4375 255.769531 C 79.4375 260.558594 79.355469 265.351562 78.445312 270.058594 C 78.199219 271.464844 77.785156 272.785156 77.207031 274.023438 C 76.132812 276.253906 75.636719 278.648438 75.636719 281.128906 C 75.554688 286.414062 75.636719 291.785156 75.636719 297.070312 C 74.648438 297.234375 73.738281 297.234375 72.75 297.070312 C 72.75 292.03125 72.75 286.910156 72.75 281.871094 C 72.75 280.960938 72.832031 280.136719 72.996094 279.226562 C 73.328125 276.75 74.316406 274.4375 75.058594 272.042969 C 75.886719 269.5625 76.464844 267.167969 76.710938 264.523438 C 77.042969 261.46875 76.875 258.496094 76.960938 255.4375 C 77.042969 251.226562 77.703125 247.097656 79.355469 243.132812 C 81.417969 238.09375 83.648438 233.054688 85.214844 227.851562 C 85.628906 226.445312 86.289062 225.042969 86.289062 223.472656 C 87.363281 223.308594 88.351562 223.390625 89.34375 223.554688 Z M 89.34375 223.554688 " fill-opacity="1" fill-rule="nonzero"/><path fill="#ffffff" d="M 80.179688 60.832031 C 79.1875 63.804688 78.28125 66.863281 79.105469 70.082031 C 79.765625 72.480469 81.253906 74.378906 82.820312 76.113281 C 85.050781 78.589844 87.609375 80.902344 89.589844 83.710938 C 91.820312 86.851562 94.296875 89.824219 97.105469 92.386719 C 98.261719 93.460938 99.417969 94.53125 100.574219 95.605469 C 102.554688 97.589844 103.875 99.984375 103.628906 102.875 C 103.628906 103.039062 103.710938 103.207031 103.792969 103.371094 C 102.800781 103.453125 101.894531 103.535156 100.902344 103.289062 C 101.398438 100.976562 100.488281 99.160156 98.921875 97.589844 C 98.179688 96.847656 97.433594 96.101562 96.691406 95.359375 C 93.472656 92.550781 90.582031 89.496094 88.023438 86.023438 C 86.621094 84.042969 84.96875 82.226562 83.234375 80.492188 C 81.664062 78.921875 80.097656 77.351562 78.777344 75.535156 C 76.628906 72.808594 75.722656 69.753906 76.050781 66.199219 C 76.214844 64.300781 76.710938 62.566406 77.207031 60.75 C 78.03125 60.335938 79.105469 60.417969 80.179688 60.832031 Z M 80.179688 60.832031 " fill-opacity="1" fill-rule="nonzero"/><g clip-path="url(#c7b7f1e380)"><path fill="#ffffff" d="M 100.738281 103.289062 C 101.730469 103.617188 102.636719 103.453125 103.628906 103.371094 C 112.132812 103.371094 120.71875 103.371094 129.222656 103.371094 C 137.644531 103.371094 146.066406 103.289062 154.488281 103.289062 C 155.394531 103.289062 156.304688 103.289062 157.128906 104.113281 C 156.386719 104.859375 155.476562 104.941406 154.570312 104.941406 C 149.699219 104.941406 144.910156 105.023438 140.039062 105.023438 C 127.738281 104.859375 115.433594 104.859375 103.050781 104.859375 C 101.8125 104.609375 100.65625 104.691406 99.417969 104.859375 C 88.105469 104.859375 76.792969 104.859375 65.398438 104.859375 C 64.160156 104.859375 63.007812 104.609375 61.765625 104.28125 C 62.261719 103.867188 62.675781 103.785156 63.171875 103.703125 C 64.824219 103.453125 66.554688 103.453125 68.207031 103.453125 C 78.445312 103.453125 88.683594 103.453125 98.839844 103.371094 C 99.5 103.371094 100.160156 103.289062 100.738281 103.289062 Z M 100.738281 103.289062 " fill-opacity="1" fill-rule="nonzero"/></g><path fill="#ffffff" d="M 91.738281 176.390625 C 91.492188 178.289062 92.234375 180.105469 92.5625 181.925781 C 94.296875 191.09375 94.464844 200.179688 92.5625 209.347656 C 91.738281 213.3125 90.832031 217.277344 89.921875 221.242188 C 89.839844 221.574219 89.757812 221.902344 89.757812 222.234375 C 88.765625 222.5625 87.773438 222.480469 86.785156 222.234375 C 86.949219 221.820312 87.199219 221.40625 87.28125 220.910156 C 87.773438 218.433594 88.351562 216.039062 88.847656 213.644531 C 89.757812 208.933594 90.5 204.144531 90.746094 199.269531 C 90.996094 193.734375 90.832031 188.203125 90.003906 182.75 C 89.675781 180.601562 89.675781 178.457031 89.015625 176.390625 C 89.839844 175.976562 90.746094 175.976562 91.738281 176.390625 Z M 91.738281 176.390625 " fill-opacity="1" fill-rule="nonzero"/><path fill="#ffffff" d="M 91.738281 176.390625 C 90.832031 175.976562 89.921875 175.976562 88.929688 176.390625 C 88.4375 176.390625 88.023438 176.390625 87.527344 176.390625 C 78.199219 176.390625 68.785156 176.308594 59.457031 176.308594 C 57.886719 176.308594 56.402344 176.226562 54.832031 175.480469 C 56.402344 174.820312 57.804688 174.65625 59.289062 174.65625 C 69.03125 174.65625 78.777344 174.65625 88.601562 174.574219 C 89.425781 174.65625 90.335938 174.738281 91.160156 174.492188 C 96.28125 174.492188 101.316406 174.492188 106.433594 174.574219 C 111.058594 174.574219 115.683594 174.574219 120.304688 174.574219 C 121.296875 174.574219 122.289062 174.65625 123.03125 175.480469 C 122.039062 176.140625 120.964844 176.308594 119.894531 176.308594 C 110.398438 176.308594 101.066406 176.390625 91.738281 176.390625 Z M 91.738281 176.390625 " fill-opacity="1" fill-rule="nonzero"/><path fill="#ffffff" d="M 91.078125 174.574219 C 90.253906 174.738281 89.34375 174.738281 88.519531 174.65625 C 88.765625 174.078125 88.601562 173.5 88.601562 172.921875 C 88.519531 169.78125 88.4375 166.644531 88.683594 163.421875 C 88.929688 160.28125 89.179688 157.144531 89.261719 154.003906 C 89.425781 148.222656 88.847656 142.441406 89.589844 136.660156 C 90.253906 136.164062 90.996094 136.328125 91.65625 136.660156 C 91.160156 138.558594 91.242188 140.625 91.242188 142.605469 C 91.242188 146.242188 91.324219 149.875 91.40625 153.425781 C 91.492188 156.8125 91.242188 160.199219 90.996094 163.585938 C 90.664062 167.222656 90.746094 170.9375 91.078125 174.574219 Z M 91.078125 174.574219 " fill-opacity="1" fill-rule="nonzero"/><path fill="#ffffff" d="M 99.417969 104.859375 C 100.65625 104.691406 101.8125 104.691406 103.050781 104.859375 C 101.316406 108.410156 98.589844 110.96875 95.207031 112.789062 C 94.378906 113.199219 94.050781 113.777344 93.96875 114.6875 C 93.800781 116.585938 93.554688 118.488281 93.71875 120.386719 C 93.886719 123.03125 93.222656 125.671875 92.894531 128.398438 C 92.648438 130.792969 92.234375 133.109375 91.820312 135.503906 C 91.160156 135.75 90.5 135.75 89.839844 135.503906 C 89.921875 134.84375 89.921875 134.097656 90.085938 133.4375 C 90.996094 129.472656 91.324219 125.425781 91.65625 121.378906 C 91.738281 120.140625 91.738281 118.816406 91.40625 117.578125 C 91.078125 116.339844 91.738281 115.019531 91.65625 113.777344 C 91.574219 112.210938 92.234375 111.382812 93.472656 110.558594 C 95.371094 109.402344 97.351562 108.164062 98.757812 106.34375 C 99.167969 105.933594 99.746094 105.519531 99.417969 104.859375 Z M 99.417969 104.859375 " fill-opacity="1" fill-rule="nonzero"/><path fill="#ffffff" d="M 89.839844 135.503906 C 90.5 135.75 91.160156 135.75 91.820312 135.503906 C 105.195312 135.421875 118.570312 135.335938 131.949219 135.335938 C 132.441406 135.335938 132.855469 135.335938 133.351562 135.335938 C 133.847656 135.335938 134.339844 135.503906 134.257812 136.082031 C 134.257812 136.578125 133.847656 136.742188 133.351562 136.742188 C 132.855469 136.742188 132.441406 136.742188 131.949219 136.742188 C 118.488281 136.742188 105.113281 136.742188 91.65625 136.660156 C 90.996094 136.328125 90.253906 136.164062 89.589844 136.660156 C 89.34375 136.660156 89.097656 136.578125 88.929688 136.578125 C 82.988281 136.492188 77.042969 136.410156 71.097656 136.328125 C 70.1875 136.328125 69.363281 136.410156 68.621094 135.914062 C 69.363281 135.585938 70.1875 135.585938 71.015625 135.585938 C 73.820312 135.585938 76.628906 135.585938 79.4375 135.585938 C 82.820312 135.585938 86.371094 135.75 89.839844 135.503906 Z M 89.839844 135.503906 " fill-opacity="1" fill-rule="nonzero"/><path fill="#ffffff" d="M 80.179688 60.832031 C 79.105469 60.417969 78.03125 60.335938 77.042969 60.914062 C 74.316406 60.667969 71.425781 61.164062 68.457031 60.089844 C 70.601562 59.511719 72.335938 59.511719 74.152344 59.511719 C 75.308594 59.511719 76.464844 59.511719 77.621094 59.429688 C 78.691406 59.59375 79.765625 59.59375 80.921875 59.429688 C 92.894531 59.429688 104.867188 59.429688 116.839844 59.429688 C 118.078125 59.429688 119.316406 59.429688 120.472656 60.007812 C 119.480469 60.667969 118.40625 60.832031 117.332031 60.832031 C 104.867188 60.832031 92.5625 60.832031 80.179688 60.832031 Z M 80.179688 60.832031 " fill-opacity="1" fill-rule="nonzero"/><path fill="#ffffff" d="M 86.703125 222.234375 C 87.691406 222.480469 88.683594 222.480469 89.675781 222.234375 C 99.167969 222.234375 108.746094 222.234375 118.242188 222.234375 C 118.902344 222.234375 119.644531 222.152344 120.304688 222.480469 C 120.472656 222.5625 120.71875 222.730469 120.636719 222.976562 C 120.636719 223.140625 120.472656 223.308594 120.304688 223.390625 C 119.726562 223.71875 119.066406 223.554688 118.40625 223.554688 C 108.664062 223.554688 99.003906 223.554688 89.261719 223.554688 C 88.269531 223.390625 87.28125 223.226562 86.289062 223.636719 C 85.875 223.636719 85.464844 223.636719 85.050781 223.636719 C 77.785156 223.636719 70.601562 223.554688 63.335938 223.554688 C 61.933594 223.554688 60.527344 223.472656 59.207031 222.976562 C 60.613281 222.480469 61.933594 222.398438 63.335938 222.398438 C 71.179688 222.316406 78.941406 222.316406 86.703125 222.234375 Z M 86.703125 222.234375 " fill-opacity="1" fill-rule="nonzero"/><path fill="#ffffff" d="M 72.75 297.152344 C 73.738281 297.234375 74.648438 297.316406 75.636719 297.152344 C 83.648438 297.070312 91.65625 296.988281 99.664062 296.820312 C 100.738281 296.820312 101.730469 296.820312 102.800781 297.398438 C 101.976562 298.226562 100.984375 298.226562 99.996094 298.226562 C 93.472656 298.226562 87.03125 298.308594 80.507812 298.308594 C 78.859375 298.308594 77.207031 298.308594 75.636719 298.308594 C 74.648438 298.144531 73.65625 297.894531 72.75 298.390625 C 68.785156 298.390625 64.738281 298.554688 60.777344 297.894531 C 64.738281 297.070312 68.785156 297.234375 72.75 297.152344 Z M 72.75 297.152344 " fill-opacity="1" fill-rule="nonzero"/><g clip-path="url(#e57147e650)"><path fill="#ffffff" d="M 39.722656 118.652344 C 40.714844 118.984375 41.703125 118.816406 42.613281 118.734375 C 44.015625 119.148438 45.503906 119.066406 46.988281 119.230469 C 46.742188 119.890625 46.492188 120.222656 45.75 120.222656 C 44.59375 120.140625 43.4375 120.222656 42.28125 120.222656 C 41.207031 120.054688 40.136719 120.140625 39.0625 120.222656 C 35.757812 120.222656 32.375 120.222656 29.070312 120.46875 C 27.339844 120.636719 25.605469 120.46875 23.789062 120.386719 C 23.375 120.386719 22.960938 120.304688 22.960938 119.726562 C 22.878906 119.148438 23.210938 118.898438 23.789062 118.816406 C 24.035156 118.734375 24.367188 118.734375 24.695312 118.734375 C 29.648438 118.734375 34.6875 118.734375 39.722656 118.652344 Z M 39.722656 118.652344 " fill-opacity="1" fill-rule="nonzero"/></g></svg>