<svg xmlns="http://www.w3.org/2000/svg" xmlns:xlink="http://www.w3.org/1999/xlink" width="500" zoomAndPan="magnify" viewBox="0 0 375 374.999991" height="500" preserveAspectRatio="xMidYMid meet" version="1.0"><rect x="-37.5" width="450" fill="#ffffff" y="-37.499999" height="449.999989" fill-opacity="1"/><rect x="-37.5" width="450" fill="#ffffff" y="-37.499999" height="449.999989" fill-opacity="1"/><path fill="#ffffff" d="M 144.535156 196.765625 C 144.332031 196 144.125 195.179688 143.863281 194.414062 C 142.863281 191.363281 142.367188 189.835938 142.074219 188.101562 C 142.042969 187.867188 141.984375 187.601562 141.957031 187.367188 C 142.863281 188.132812 144.390625 188.953125 145.621094 188.191406 C 146.734375 187.515625 147 185.929688 146.675781 184.667969 C 146.648438 184.578125 146.617188 184.488281 146.589844 184.371094 C 146.382812 183.726562 146.265625 183.140625 146.238281 182.582031 C 146.207031 181.875 146.089844 181.171875 145.855469 180.523438 C 145.796875 180.347656 145.738281 180.203125 145.679688 180.027344 C 145.359375 179.261719 145.121094 178.46875 144.945312 177.882812 C 144.710938 177 144.332031 176.207031 143.832031 175.503906 C 143.273438 174.679688 142.601562 174.066406 139.929688 172.214844 C 138.992188 171.539062 137.996094 170.894531 137.027344 170.246094 C 136.824219 168.925781 136.5 166.957031 136.089844 164.578125 L 135.503906 161.027344 C 134.59375 155.621094 134.503906 155.0625 134.386719 153.800781 C 134.210938 151.863281 134.210938 150.980469 134.242188 149.75 C 134.269531 148.457031 134.269531 146.871094 134.09375 143.492188 C 133.859375 139.148438 133.742188 136.972656 133.273438 134.625 C 132.921875 132.890625 132.570312 131.746094 130.195312 125.34375 C 129.195312 122.671875 128.199219 119.96875 127.203125 117.355469 C 126.820312 112.921875 126.324219 108.457031 125.675781 104.054688 C 125.207031 100.765625 124.652344 97.417969 124.0625 94.128906 C 124.445312 92.367188 124.679688 90.515625 124.769531 88.722656 C 125.003906 84.613281 125.5 76.039062 120.105469 68.726562 C 116.644531 64.054688 112.128906 61.648438 109.75 60.648438 C 107.933594 59.886719 106.789062 59.652344 105.441406 59.386719 C 103.972656 59.09375 102.300781 58.769531 99.132812 57.566406 C 95.703125 56.242188 93.121094 54.894531 90.6875 53.132812 C 89.632812 52.367188 88.605469 51.515625 87.636719 50.636719 C 87.285156 47.667969 87.195312 44.644531 87.371094 41.648438 C 87.492188 39.886719 87.695312 38.152344 87.988281 36.390625 C 89.191406 36.507812 90.042969 35.714844 90.335938 35.453125 C 91.039062 34.777344 91.246094 34.160156 91.625 32.984375 C 91.714844 32.75 91.800781 32.457031 91.890625 32.132812 C 92.09375 31.515625 92.269531 31.046875 92.417969 30.664062 C 92.710938 29.8125 92.945312 29.195312 93.152344 28.140625 C 93.386719 26.878906 93.386719 26.203125 93.09375 25.496094 C 92.652344 24.5 91.683594 23.5 90.480469 23.527344 C 90.6875 21.472656 90.6875 19.386719 90.453125 17.332031 C 90.160156 14.894531 89.867188 12.136719 88.195312 9.140625 C 87.34375 7.582031 84.058594 2.355469 77.839844 0.828125 C 76.578125 0.503906 74.90625 0.359375 73.5 0.386719 C 72.09375 0.359375 70.421875 0.476562 69.128906 0.800781 C 62.910156 2.328125 59.628906 7.554688 58.777344 9.109375 C 57.132812 12.105469 56.8125 14.867188 56.546875 17.304688 C 56.3125 19.359375 56.285156 21.445312 56.488281 23.5 C 56.460938 23.5 56.460938 23.5 56.429688 23.5 C 55.257812 23.5 54.289062 24.5 53.878906 25.46875 C 53.585938 26.144531 53.585938 26.847656 53.820312 28.109375 C 54.023438 29.167969 54.230469 29.785156 54.554688 30.636719 C 54.699219 31.046875 54.875 31.488281 55.082031 32.105469 C 55.199219 32.425781 55.285156 32.722656 55.34375 32.957031 C 55.695312 34.101562 55.902344 34.746094 56.636719 35.421875 C 56.929688 35.6875 57.808594 36.507812 58.980469 36.363281 C 59.273438 38.09375 59.480469 39.855469 59.597656 41.621094 C 59.773438 44.613281 59.6875 47.609375 59.332031 50.605469 C 58.367188 51.488281 57.339844 52.339844 56.285156 53.101562 C 53.878906 54.835938 51.269531 56.214844 47.835938 57.535156 C 44.667969 58.769531 42.996094 59.09375 41.53125 59.355469 C 40.210938 59.621094 39.066406 59.828125 37.21875 60.621094 C 34.84375 61.648438 30.296875 64.027344 26.867188 68.695312 C 21.46875 76.007812 21.96875 84.582031 22.203125 88.695312 C 22.320312 90.515625 22.554688 92.335938 22.90625 94.097656 C 22.289062 97.386719 21.761719 100.707031 21.292969 104.023438 C 20.675781 108.429688 20.148438 112.921875 19.769531 117.328125 C 18.769531 119.96875 17.773438 122.671875 16.777344 125.316406 C 14.402344 131.71875 14.050781 132.863281 13.695312 134.59375 C 13.199219 136.945312 13.082031 139.148438 12.875 143.464844 C 12.699219 146.8125 12.730469 148.425781 12.730469 149.71875 C 12.730469 150.953125 12.757812 151.863281 12.582031 153.773438 C 12.464844 155.035156 12.378906 155.59375 11.46875 160.996094 L 10.882812 164.550781 C 10.46875 166.929688 10.148438 168.894531 9.941406 170.21875 C 8.976562 170.863281 7.976562 171.507812 7.039062 172.183594 C 4.371094 174.035156 3.695312 174.652344 3.136719 175.472656 C 2.640625 176.179688 2.289062 177 2.023438 177.851562 C 1.847656 178.46875 1.613281 179.261719 1.289062 179.996094 C 1.230469 180.144531 1.171875 180.320312 1.113281 180.464844 C 0.878906 181.140625 0.761719 181.816406 0.734375 182.523438 C 0.734375 183.082031 0.617188 183.667969 0.410156 184.3125 C 0.382812 184.402344 0.351562 184.488281 0.324219 184.605469 C 0 185.839844 0.265625 187.457031 1.378906 188.132812 C 2.609375 188.867188 4.136719 188.042969 5.042969 187.308594 C 5.015625 187.542969 4.984375 187.808594 4.925781 188.042969 C 4.632812 189.804688 4.136719 191.332031 3.136719 194.355469 C 2.875 195.148438 2.667969 195.941406 2.492188 196.707031 C 2.140625 198.027344 1.847656 199.261719 1.289062 200.40625 C 1.085938 200.847656 0.441406 202.167969 0.675781 203.84375 C 0.761719 204.402344 0.9375 205.691406 2.023438 206.25 C 2.582031 206.542969 3.253906 206.574219 3.929688 206.339844 C 4.898438 206.015625 5.691406 205.222656 6.042969 204.222656 C 6.539062 202.785156 7.070312 201.347656 7.625 199.9375 C 8.183594 198.46875 8.769531 197 9.386719 195.5625 C 9.386719 195.5625 9.386719 195.589844 9.386719 195.589844 C 8.976562 198.351562 8.621094 201.140625 8.359375 203.902344 L 8.359375 203.960938 C 8.328125 204.871094 8.269531 205.75 8.210938 206.574219 L 8.210938 206.691406 C 8.152344 207.542969 8.09375 208.21875 8.476562 209.011719 C 8.859375 209.832031 9.414062 210.363281 10.117188 210.539062 C 11.320312 210.863281 12.496094 210.011719 13.140625 209.011719 C 13.402344 208.570312 13.578125 208.101562 13.667969 207.601562 L 13.667969 207.542969 C 13.8125 206.164062 13.960938 204.753906 14.167969 203.371094 C 14.429688 201.492188 14.722656 199.585938 15.105469 197.703125 L 15.105469 197.882812 C 15.132812 200.933594 15.046875 204.046875 14.929688 207.101562 L 14.929688 207.277344 C 15.015625 207.984375 15.28125 208.570312 15.75 208.980469 C 16.074219 209.277344 16.484375 209.480469 16.953125 209.539062 C 17.714844 209.6875 18.476562 209.511719 19.121094 209.011719 C 19.769531 208.511719 20.179688 207.75 20.265625 206.925781 L 21.175781 195.589844 C 21.441406 196.734375 21.703125 197.882812 22.027344 198.996094 C 22.230469 199.703125 22.4375 200.378906 22.640625 201.054688 C 22.964844 202.023438 23.875 202.640625 24.929688 202.550781 C 25.546875 202.492188 26.101562 202.199219 26.484375 201.699219 C 26.867188 201.230469 27.011719 200.582031 26.894531 199.996094 C 26.308594 196.707031 26.101562 193.445312 26.28125 190.332031 C 26.308594 189.539062 26.398438 188.777344 26.457031 188.042969 C 26.601562 186.339844 26.75 184.546875 26.632812 182.082031 C 26.542969 179.851562 26.25 177.589844 25.78125 175.386719 C 26.953125 170.6875 28.421875 165.960938 30.152344 161.347656 C 31.351562 158.148438 32.351562 155.855469 33.230469 153.859375 C 34.285156 151.421875 35.195312 149.335938 36.164062 146.402344 C 37.921875 140.878906 38.921875 134.949219 39.15625 128.75 L 41.53125 117.769531 C 41.617188 118.148438 41.675781 118.53125 41.765625 118.882812 C 42.292969 121.292969 42.792969 122.703125 43.230469 123.964844 C 43.699219 125.375 44.082031 126.460938 44.40625 128.546875 C 44.875 131.835938 44.726562 134.773438 44.492188 136.621094 C 44.375 137.648438 44.257812 138.207031 44.140625 138.824219 C 44.023438 139.351562 43.90625 139.910156 43.789062 140.761719 C 43.378906 143.667969 43.378906 146.722656 43.761719 149.867188 C 42.9375 153.183594 42.382812 156.472656 42.148438 159.703125 C 42.089844 160.527344 42.058594 161.203125 42.03125 161.820312 C 42 162.640625 41.941406 163.523438 41.851562 164.871094 C 41.53125 168.601562 41.003906 171.421875 40.796875 172.625 L 40.769531 172.800781 C 39.566406 179.292969 38.6875 188.015625 38.332031 191.773438 C 37.015625 205.105469 38.570312 216.207031 39.242188 220.933594 C 40.300781 228.335938 42 235.765625 44.316406 242.929688 C 44.816406 246.191406 45.167969 249.507812 45.402344 252.828125 C 45.578125 255.527344 45.960938 260.550781 45.609375 266.511719 C 45.402344 270.007812 45.109375 271.503906 44.785156 273.0625 C 44.492188 274.46875 44.199219 275.9375 43.996094 278.875 C 43.378906 287.507812 44.523438 294.441406 45.226562 298.582031 C 45.34375 299.316406 46.136719 302.78125 47.867188 310.589844 L 48.714844 314.410156 C 50.476562 322.308594 50.769531 323.511719 51.09375 325.746094 C 51.796875 330.386719 52.148438 335.230469 52.089844 340.105469 C 51.914062 340.957031 51.824219 341.808594 51.824219 342.660156 C 51.824219 342.925781 51.855469 343.160156 51.855469 343.394531 C 52 345.421875 51.914062 347.359375 51.589844 349.121094 C 51.5625 349.328125 51.503906 349.503906 51.472656 349.707031 C 50.976562 352.292969 50.710938 353.585938 50.09375 355.113281 C 49.742188 356.023438 48.921875 357.402344 47.28125 360.164062 C 46.867188 360.867188 46.546875 361.398438 46.28125 361.808594 C 45.636719 362.863281 45.460938 363.1875 45.167969 363.921875 C 44.699219 365.125 43.847656 367.359375 44.640625 369.882812 C 44.757812 370.292969 44.933594 370.707031 45.136719 371.085938 C 45.519531 371.820312 46.253906 372.261719 47.074219 372.261719 L 47.542969 372.261719 C 48.277344 372.792969 49.273438 373.171875 50.210938 372.9375 C 50.710938 373.085938 51.238281 373.113281 51.738281 372.996094 L 52.148438 372.910156 C 53.144531 373.320312 54.289062 373.378906 55.316406 372.996094 C 55.785156 373.40625 56.285156 373.703125 56.839844 373.878906 C 57.222656 373.996094 57.601562 374.054688 57.984375 374.054688 C 60.242188 374.054688 62.824219 372.234375 64.554688 369.265625 C 66.050781 367.09375 66.871094 364.566406 66.929688 361.953125 L 66.988281 359.753906 C 67.019531 358.664062 67.605469 357.667969 68.542969 357.019531 C 68.925781 356.757812 69.277344 356.464844 69.597656 356.140625 C 70.832031 354.90625 71.5625 353.527344 71.710938 352.027344 C 71.859375 350.617188 71.328125 349.328125 70.273438 346.742188 C 69.714844 345.390625 69.453125 343.980469 69.453125 342.542969 L 69.453125 340.515625 C 69.453125 339.253906 69.246094 337.992188 68.894531 336.816406 C 68.339844 335.082031 67.984375 333.292969 67.78125 331.53125 C 67.546875 329.210938 67.664062 327.449219 67.78125 325.921875 C 68.25 319.726562 68.484375 316.640625 68.925781 313.410156 C 69.597656 308.535156 70.070312 306.15625 70.449219 304.25 C 70.832031 302.28125 71.125 300.871094 71.359375 297.90625 C 71.621094 294.292969 71.621094 290.183594 71.359375 286.277344 C 71.035156 281.78125 70.363281 277.289062 69.363281 272.914062 L 69.714844 268.214844 C 70.304688 266.6875 70.832031 265.132812 71.269531 263.546875 C 72.238281 260.109375 72.855469 255.792969 73.117188 250.710938 C 73.207031 248.980469 73.207031 248.273438 73.175781 246.628906 C 73.148438 245.074219 73.117188 242.722656 73.117188 237.878906 C 73.117188 233.121094 72.707031 230.476562 72.503906 229.070312 C 72.414062 228.539062 72.355469 228.128906 72.355469 227.953125 C 72.472656 225.222656 72.621094 223.871094 72.765625 222.402344 C 72.882812 221.226562 73 220.023438 73.117188 218.054688 C 73.292969 215.089844 73.292969 213.652344 73.292969 206.691406 C 73.292969 205.046875 73.292969 203.078125 73.292969 200.730469 C 73.292969 199.761719 73.234375 198.554688 73.175781 197.175781 C 73.117188 195.5625 73.03125 193.621094 73 191.480469 C 73.441406 191.539062 73.851562 191.539062 74.292969 191.480469 C 74.261719 193.621094 74.175781 195.5625 74.117188 197.175781 C 74.058594 198.554688 74 199.761719 74 200.730469 C 74 203.109375 74 205.046875 74 206.691406 C 73.96875 213.652344 73.96875 215.089844 74.175781 218.054688 C 74.292969 220.023438 74.410156 221.226562 74.527344 222.402344 C 74.671875 223.839844 74.820312 225.222656 74.9375 227.953125 C 74.9375 228.160156 74.878906 228.570312 74.789062 229.070312 C 74.554688 230.476562 74.144531 233.09375 74.175781 237.878906 C 74.175781 242.722656 74.144531 245.074219 74.117188 246.628906 C 74.085938 248.304688 74.085938 248.980469 74.175781 250.710938 C 74.4375 255.792969 75.082031 260.109375 76.023438 263.546875 C 76.460938 265.132812 76.988281 266.6875 77.578125 268.214844 L 77.929688 272.914062 C 76.902344 277.289062 76.226562 281.78125 75.933594 286.277344 C 75.671875 290.183594 75.671875 294.324219 75.933594 297.90625 C 76.167969 300.871094 76.433594 302.308594 76.84375 304.25 C 77.226562 306.15625 77.695312 308.535156 78.367188 313.410156 C 78.808594 316.613281 79.042969 319.726562 79.511719 325.921875 C 79.628906 327.449219 79.746094 329.210938 79.511719 331.53125 C 79.335938 333.320312 78.957031 335.113281 78.398438 336.816406 C 78.015625 338.019531 77.8125 339.253906 77.8125 340.515625 L 77.8125 342.542969 C 77.8125 343.980469 77.546875 345.390625 76.960938 346.773438 C 75.90625 349.355469 75.378906 350.648438 75.523438 352.027344 C 75.671875 353.527344 76.375 354.878906 77.636719 356.140625 C 77.957031 356.464844 78.308594 356.757812 78.691406 357.019531 C 79.628906 357.667969 80.214844 358.664062 80.246094 359.753906 L 80.304688 361.953125 C 80.363281 364.566406 81.183594 367.09375 82.679688 369.265625 C 84.734375 372.761719 87.902344 374.640625 90.394531 373.878906 C 90.949219 373.703125 91.449219 373.40625 91.917969 372.996094 C 92.945312 373.378906 94.089844 373.347656 95.085938 372.910156 L 95.496094 372.996094 C 95.996094 373.113281 96.523438 373.113281 97.023438 372.9375 C 97.960938 373.171875 98.957031 372.820312 99.691406 372.261719 L 100.160156 372.261719 C 100.980469 372.261719 101.714844 371.820312 102.097656 371.085938 C 102.300781 370.707031 102.449219 370.292969 102.59375 369.882812 C 103.386719 367.359375 102.535156 365.125 102.066406 363.921875 C 101.773438 363.1875 101.597656 362.863281 100.953125 361.808594 C 100.71875 361.398438 100.394531 360.867188 99.957031 360.164062 C 98.3125 357.402344 97.492188 356.023438 97.140625 355.113281 C 96.523438 353.585938 96.289062 352.292969 95.761719 349.707031 C 95.730469 349.503906 95.671875 349.296875 95.644531 349.121094 C 95.320312 347.359375 95.234375 345.449219 95.378906 343.394531 C 95.410156 343.160156 95.410156 342.894531 95.410156 342.660156 C 95.410156 341.808594 95.320312 340.957031 95.144531 340.105469 C 95.117188 335.230469 95.4375 330.386719 96.140625 325.746094 C 96.496094 323.511719 96.757812 322.308594 98.519531 314.410156 L 99.367188 310.589844 C 101.15625 302.574219 101.890625 299.285156 102.007812 298.582031 C 102.683594 294.441406 103.855469 287.507812 103.242188 278.875 C 103.035156 275.9375 102.742188 274.46875 102.449219 273.0625 C 102.125 271.476562 101.832031 269.976562 101.628906 266.511719 C 101.273438 260.550781 101.628906 255.527344 101.832031 252.828125 C 102.066406 249.539062 102.449219 246.191406 102.917969 242.929688 C 105.234375 235.734375 106.9375 228.335938 107.992188 220.933594 C 108.667969 216.207031 110.25 205.136719 108.902344 191.773438 C 108.519531 188.042969 107.667969 179.292969 106.464844 172.800781 L 106.4375 172.625 C 106.203125 171.421875 105.675781 168.601562 105.382812 164.871094 C 105.265625 163.523438 105.234375 162.640625 105.207031 161.820312 C 105.175781 161.203125 105.148438 160.554688 105.089844 159.703125 C 104.851562 156.472656 104.324219 153.183594 103.476562 149.867188 C 103.855469 146.722656 103.855469 143.667969 103.445312 140.761719 C 103.328125 139.882812 103.210938 139.351562 103.09375 138.824219 C 102.976562 138.207031 102.859375 137.648438 102.742188 136.621094 C 102.535156 134.769531 102.359375 131.863281 102.828125 128.546875 C 103.121094 126.460938 103.503906 125.34375 104.003906 123.964844 C 104.441406 122.703125 104.910156 121.292969 105.46875 118.882812 C 105.558594 118.503906 105.617188 118.148438 105.703125 117.769531 L 108.078125 128.75 C 108.285156 134.949219 109.3125 140.878906 111.070312 146.402344 C 112.011719 149.367188 112.917969 151.453125 114.003906 153.859375 C 114.882812 155.855469 115.882812 158.148438 117.082031 161.347656 C 118.8125 165.960938 120.28125 170.6875 121.453125 175.386719 C 120.984375 177.589844 120.71875 179.820312 120.632812 182.082031 C 120.515625 184.578125 120.660156 186.339844 120.808594 188.042969 C 120.867188 188.777344 120.925781 189.539062 120.984375 190.332031 C 121.160156 193.476562 120.957031 196.707031 120.367188 199.996094 C 120.25 200.613281 120.425781 201.230469 120.78125 201.699219 C 121.160156 202.167969 121.71875 202.492188 122.332031 202.550781 C 123.359375 202.636719 124.269531 202.023438 124.59375 201.054688 C 124.796875 200.378906 125.03125 199.703125 125.207031 198.996094 C 125.53125 197.882812 125.824219 196.734375 126.058594 195.589844 L 126.96875 206.925781 C 127.027344 207.75 127.4375 208.511719 128.113281 209.011719 C 128.757812 209.480469 129.519531 209.6875 130.28125 209.539062 C 130.75 209.453125 131.160156 209.246094 131.484375 208.980469 C 131.953125 208.570312 132.21875 207.984375 132.304688 207.277344 L 132.304688 207.101562 C 132.160156 204.046875 132.101562 200.933594 132.128906 197.882812 L 132.128906 197.703125 C 132.480469 199.585938 132.804688 201.492188 133.070312 203.371094 C 133.273438 204.753906 133.421875 206.164062 133.566406 207.542969 L 133.566406 207.601562 C 133.65625 208.128906 133.832031 208.601562 134.09375 209.011719 C 134.742188 210.007812 135.914062 210.832031 137.117188 210.539062 C 137.789062 210.363281 138.347656 209.863281 138.757812 209.011719 C 139.140625 208.21875 139.082031 207.542969 139.023438 206.691406 L 139.023438 206.574219 C 138.964844 205.722656 138.90625 204.839844 138.875 203.960938 L 138.875 203.902344 C 138.613281 201.140625 138.261719 198.351562 137.847656 195.589844 C 137.847656 195.589844 137.847656 195.5625 137.847656 195.5625 C 138.464844 197 139.050781 198.46875 139.609375 199.9375 C 140.136719 201.347656 140.695312 202.785156 141.191406 204.222656 C 141.542969 205.253906 142.335938 206.046875 143.304688 206.339844 C 143.980469 206.574219 144.652344 206.515625 145.210938 206.25 C 146.324219 205.691406 146.5 204.402344 146.558594 203.84375 C 146.792969 202.167969 146.148438 200.847656 145.945312 200.378906 C 145.179688 199.320312 144.859375 198.058594 144.535156 196.765625 Z M 144.390625 203.636719 C 144.300781 204.3125 144.15625 204.519531 144.066406 204.578125 C 144.007812 204.605469 143.863281 204.605469 143.6875 204.546875 C 143.304688 204.429688 142.980469 204.078125 142.835938 203.636719 C 142.335938 202.199219 141.78125 200.730469 141.25 199.320312 C 140.109375 196.355469 138.847656 193.386719 137.527344 190.480469 L 137.175781 189.6875 L 134.800781 190.421875 L 134.945312 191.273438 C 135.210938 192.832031 135.472656 194.386719 135.707031 195.941406 C 136.117188 198.644531 136.441406 201.40625 136.734375 204.136719 C 136.765625 205.046875 136.824219 205.957031 136.882812 206.808594 L 136.882812 206.925781 C 136.941406 207.660156 136.941406 207.925781 136.824219 208.246094 C 136.648438 208.628906 136.53125 208.6875 136.46875 208.71875 C 136.324219 208.746094 135.882812 208.453125 135.589844 208.042969 C 135.472656 207.867188 135.386719 207.660156 135.355469 207.425781 C 135.210938 206.015625 135.0625 204.605469 134.859375 203.195312 C 134.328125 199.4375 133.625 195.648438 132.714844 191.949219 L 132.511719 191.125 L 130.164062 191.363281 L 130.136719 192.214844 C 130.078125 194.121094 130.019531 196.058594 130.019531 197.96875 C 130.019531 201.054688 130.078125 204.164062 130.195312 207.21875 C 130.164062 207.394531 130.105469 207.511719 130.046875 207.601562 C 129.988281 207.660156 129.902344 207.691406 129.8125 207.71875 C 129.519531 207.777344 129.3125 207.632812 129.195312 207.574219 C 128.992188 207.394531 128.84375 207.160156 128.816406 206.898438 L 127.496094 190.804688 L 124.855469 190.714844 L 124.710938 191.566406 C 124.328125 193.945312 123.828125 196.296875 123.183594 198.617188 C 122.980469 199.289062 122.804688 199.964844 122.570312 200.613281 C 122.539062 200.699219 122.449219 200.757812 122.332031 200.757812 C 122.246094 200.757812 122.214844 200.699219 122.1875 200.671875 C 122.15625 200.640625 122.128906 200.582031 122.15625 200.496094 C 122.746094 197.058594 122.980469 193.652344 122.804688 190.394531 C 122.773438 189.570312 122.6875 188.777344 122.628906 188.042969 C 122.480469 186.25 122.332031 184.578125 122.449219 182.109375 C 122.570312 179.910156 122.863281 177.707031 123.332031 175.5625 L 123.332031 175.53125 L 123.273438 175.296875 C 122.070312 170.453125 120.574219 165.578125 118.785156 160.820312 C 117.554688 157.558594 116.554688 155.269531 115.675781 153.242188 C 114.648438 150.863281 113.738281 148.808594 112.832031 145.960938 C 111.128906 140.585938 110.132812 134.800781 109.925781 128.78125 L 105.03125 106.078125 L 104.441406 112.363281 C 104.238281 114.449219 103.914062 116.5625 103.445312 118.648438 C 102.945312 120.941406 102.449219 122.320312 102.039062 123.496094 C 101.539062 124.933594 101.097656 126.195312 100.777344 128.457031 C 100.277344 131.953125 100.453125 135.066406 100.660156 137.03125 C 100.777344 138.148438 100.921875 138.792969 101.039062 139.410156 C 101.128906 139.910156 101.246094 140.410156 101.363281 141.230469 C 101.773438 144.023438 101.773438 146.957031 101.363281 150.011719 L 101.332031 150.1875 L 101.390625 150.367188 C 102.214844 153.625 102.769531 156.886719 102.976562 160.027344 C 103.035156 160.820312 103.0625 161.4375 103.09375 162.082031 C 103.121094 162.933594 103.179688 163.816406 103.300781 165.226562 C 103.621094 169.042969 104.148438 171.921875 104.382812 173.152344 L 104.414062 173.332031 C 105.585938 179.734375 106.464844 188.425781 106.820312 192.125 C 108.136719 205.222656 106.582031 216.148438 105.910156 220.816406 C 104.851562 228.128906 103.179688 235.472656 100.863281 242.578125 L 100.835938 242.726562 C 100.335938 246.074219 99.957031 249.449219 99.71875 252.855469 C 99.515625 255.585938 99.164062 260.699219 99.515625 266.777344 C 99.71875 270.417969 100.042969 272.03125 100.367188 273.617188 C 100.660156 275.027344 100.921875 276.378906 101.128906 279.167969 C 101.746094 287.566406 100.601562 294.351562 99.925781 298.40625 C 99.808594 299.109375 98.929688 303.074219 97.316406 310.328125 L 96.464844 314.144531 C 94.675781 322.105469 94.410156 323.335938 94.058594 325.628906 C 93.328125 330.414062 92.976562 335.378906 93.035156 340.398438 L 93.035156 340.488281 L 93.0625 340.574219 C 93.210938 341.308594 93.296875 342.042969 93.296875 342.777344 C 93.296875 342.984375 93.296875 343.1875 93.269531 343.394531 C 93.09375 345.597656 93.210938 347.683594 93.5625 349.621094 C 93.589844 349.828125 93.648438 350.03125 93.679688 350.238281 C 94.207031 352.9375 94.46875 354.289062 95.144531 355.992188 C 95.554688 357.019531 96.40625 358.460938 98.109375 361.308594 C 98.546875 362.042969 98.871094 362.570312 99.105469 362.984375 C 99.71875 363.980469 99.839844 364.214844 100.074219 364.773438 C 100.484375 365.832031 101.128906 367.5625 100.570312 369.472656 C 100.484375 369.765625 100.367188 370.058594 100.21875 370.324219 C 100.191406 370.382812 100.101562 370.441406 100.015625 370.441406 L 98.78125 370.441406 L 98.488281 370.707031 C 98.078125 371.089844 97.492188 371.265625 97.257812 371.148438 L 96.789062 370.910156 L 96.347656 371.148438 C 96.171875 371.234375 95.996094 371.265625 95.789062 371.207031 L 94.675781 370.910156 L 94.351562 371.089844 C 93.679688 371.441406 92.886719 371.46875 92.183594 371.148438 L 91.246094 370.707031 L 90.746094 371.292969 C 90.394531 371.703125 90.042969 371.96875 89.660156 372.085938 C 88.339844 372.496094 85.964844 371.324219 84.207031 368.328125 L 84.148438 368.238281 C 82.886719 366.390625 82.179688 364.246094 82.121094 361.984375 L 82.0625 359.78125 C 82.035156 358.078125 81.125 356.464844 79.660156 355.464844 C 79.367188 355.289062 79.101562 355.054688 78.867188 354.820312 C 77.957031 353.910156 77.429688 352.9375 77.34375 351.910156 C 77.253906 351 77.722656 349.855469 78.660156 347.566406 C 79.308594 346.007812 79.628906 344.304688 79.628906 342.632812 L 79.628906 340.605469 C 79.628906 339.546875 79.777344 338.492188 80.097656 337.492188 C 80.6875 335.640625 81.097656 333.734375 81.273438 331.792969 C 81.535156 329.296875 81.390625 327.359375 81.273438 325.832031 C 80.804688 319.609375 80.570312 316.496094 80.128906 313.207031 C 79.453125 308.273438 78.957031 305.746094 78.574219 303.925781 C 78.164062 301.957031 77.929688 300.664062 77.695312 297.816406 C 77.429688 294.324219 77.429688 290.269531 77.695312 286.480469 C 77.988281 282.046875 78.660156 277.613281 79.6875 273.296875 L 79.71875 273.148438 L 79.335938 267.863281 L 79.277344 267.714844 C 78.691406 266.21875 78.164062 264.660156 77.722656 263.105469 C 76.8125 259.816406 76.199219 255.644531 75.933594 250.683594 C 75.847656 249.007812 75.847656 248.390625 75.875 246.746094 C 75.90625 245.191406 75.933594 242.8125 75.933594 237.96875 C 75.933594 233.355469 76.316406 230.917969 76.550781 229.480469 C 76.667969 228.804688 76.726562 228.363281 76.695312 227.953125 C 76.578125 225.191406 76.433594 223.78125 76.285156 222.316406 C 76.167969 221.167969 76.050781 219.996094 75.933594 218.054688 C 75.757812 215.148438 75.757812 213.710938 75.789062 206.808594 C 75.789062 205.164062 75.789062 203.195312 75.789062 200.816406 C 75.789062 199.878906 75.847656 198.703125 75.90625 197.351562 C 75.992188 195.414062 76.109375 193.007812 76.082031 190.304688 L 76.082031 188.894531 L 74.761719 189.394531 C 73.941406 189.71875 73 189.71875 72.179688 189.394531 L 70.859375 188.894531 L 70.859375 190.304688 C 70.859375 193.007812 70.949219 195.414062 71.035156 197.351562 C 71.09375 198.703125 71.152344 199.878906 71.152344 200.816406 C 71.152344 203.195312 71.152344 205.136719 71.152344 206.808594 C 71.183594 213.710938 71.183594 215.148438 71.007812 218.054688 C 70.890625 219.996094 70.773438 221.167969 70.65625 222.316406 C 70.507812 223.78125 70.363281 225.191406 70.246094 227.953125 C 70.214844 228.335938 70.304688 228.804688 70.390625 229.480469 C 70.625 230.917969 71.007812 233.355469 70.976562 237.96875 C 70.976562 242.84375 71.007812 245.191406 71.035156 246.746094 C 71.066406 248.390625 71.066406 249.007812 70.976562 250.683594 C 70.714844 255.617188 70.097656 259.816406 69.1875 263.105469 C 68.75 264.660156 68.21875 266.21875 67.632812 267.714844 L 67.574219 267.863281 L 67.195312 273.148438 L 67.222656 273.296875 C 68.25 277.613281 68.925781 282.046875 69.21875 286.480469 C 69.480469 290.300781 69.480469 294.324219 69.21875 297.816406 C 69.011719 300.664062 68.75 301.957031 68.339844 303.925781 C 67.957031 305.746094 67.457031 308.273438 66.785156 313.207031 C 66.34375 316.464844 66.109375 319.609375 65.640625 325.832031 C 65.523438 327.359375 65.375 329.296875 65.640625 331.792969 C 65.84375 333.703125 66.253906 335.640625 66.8125 337.492188 C 67.136719 338.492188 67.28125 339.546875 67.28125 340.605469 L 67.28125 342.632812 C 67.28125 344.335938 67.605469 346.007812 68.277344 347.59375 C 69.21875 349.855469 69.6875 351 69.570312 351.910156 C 69.453125 352.9375 68.953125 353.90625 68.015625 354.820312 C 67.78125 355.054688 67.515625 355.289062 67.222656 355.464844 C 65.757812 356.464844 64.847656 358.078125 64.820312 359.78125 L 64.757812 361.984375 C 64.699219 364.214844 63.996094 366.390625 62.707031 368.269531 L 62.675781 368.328125 C 60.917969 371.324219 58.570312 372.496094 57.222656 372.085938 C 56.839844 371.96875 56.460938 371.703125 56.109375 371.292969 L 55.609375 370.707031 L 54.671875 371.148438 C 53.996094 371.46875 53.175781 371.46875 52.5 371.085938 L 52.175781 370.910156 L 51.035156 371.207031 C 50.859375 371.265625 50.652344 371.234375 50.476562 371.148438 L 50.007812 370.910156 L 49.539062 371.148438 C 49.304688 371.265625 48.714844 371.089844 48.304688 370.707031 L 48.011719 370.441406 L 46.808594 370.441406 C 46.722656 370.441406 46.632812 370.382812 46.605469 370.324219 C 46.457031 370.03125 46.339844 369.765625 46.253906 369.472656 C 45.667969 367.59375 46.339844 365.832031 46.722656 364.773438 C 46.925781 364.214844 47.074219 363.980469 47.691406 362.984375 C 47.925781 362.570312 48.246094 362.042969 48.6875 361.308594 C 50.386719 358.460938 51.210938 357.050781 51.648438 355.992188 C 52.324219 354.289062 52.589844 352.9375 53.117188 350.238281 C 53.144531 350.03125 53.203125 349.828125 53.234375 349.621094 C 53.585938 347.710938 53.671875 345.597656 53.527344 343.394531 C 53.496094 343.1875 53.496094 342.984375 53.496094 342.777344 C 53.496094 342.042969 53.554688 341.28125 53.730469 340.574219 L 53.761719 340.488281 L 53.761719 340.398438 C 53.789062 335.378906 53.46875 330.414062 52.734375 325.628906 C 52.382812 323.335938 52.117188 322.105469 50.328125 314.144531 L 49.480469 310.328125 C 47.925781 303.339844 46.957031 299.109375 46.839844 298.40625 C 46.164062 294.351562 45.019531 287.566406 45.636719 279.167969 C 45.84375 276.378906 46.105469 275.027344 46.398438 273.617188 C 46.722656 272.03125 47.042969 270.417969 47.25 266.777344 C 47.601562 260.699219 47.25 255.585938 47.042969 252.855469 C 46.808594 249.480469 46.429688 246.074219 45.929688 242.726562 L 45.902344 242.578125 C 43.613281 235.472656 41.910156 228.160156 40.886719 220.816406 C 40.210938 216.148438 38.6875 205.222656 39.976562 192.125 C 40.359375 188.425781 41.207031 179.730469 42.410156 173.332031 L 42.441406 173.152344 C 42.675781 171.921875 43.203125 169.042969 43.523438 165.226562 C 43.640625 163.816406 43.671875 162.933594 43.730469 162.082031 C 43.757812 161.4375 43.789062 160.847656 43.847656 160.027344 C 44.082031 156.855469 44.609375 153.625 45.429688 150.367188 L 45.488281 150.1875 L 45.460938 150.011719 C 45.078125 146.988281 45.078125 144.050781 45.460938 141.230469 C 45.578125 140.4375 45.695312 139.910156 45.785156 139.410156 C 45.902344 138.792969 46.046875 138.148438 46.164062 137.03125 C 46.398438 135.066406 46.574219 131.980469 46.078125 128.457031 C 45.753906 126.195312 45.3125 124.933594 44.816406 123.496094 C 44.40625 122.289062 43.9375 120.941406 43.40625 118.648438 C 42.9375 116.59375 42.617188 114.480469 42.410156 112.363281 L 41.824219 106.078125 L 36.925781 128.605469 L 36.898438 128.78125 C 36.691406 134.800781 35.722656 140.585938 33.992188 145.960938 C 33.082031 148.808594 32.175781 150.863281 31.148438 153.242188 C 30.269531 155.269531 29.242188 157.558594 28.039062 160.820312 C 26.25 165.578125 24.753906 170.453125 23.550781 175.296875 L 23.492188 175.53125 L 23.492188 175.5625 C 23.960938 177.707031 24.253906 179.910156 24.371094 182.109375 C 24.488281 184.578125 24.34375 186.28125 24.195312 188.042969 C 24.136719 188.808594 24.078125 189.570312 24.019531 190.394531 C 23.84375 193.683594 24.078125 197.058594 24.667969 200.496094 C 24.695312 200.582031 24.636719 200.640625 24.636719 200.671875 C 24.609375 200.699219 24.578125 200.730469 24.460938 200.757812 C 24.371094 200.757812 24.285156 200.699219 24.226562 200.613281 C 24.019531 199.964844 23.816406 199.289062 23.609375 198.617188 C 22.964844 196.324219 22.4375 193.945312 22.054688 191.566406 L 21.910156 190.714844 L 19.269531 190.804688 L 18.183594 206.839844 C 18.15625 207.101562 18.039062 207.335938 17.804688 207.511719 C 17.6875 207.601562 17.480469 207.71875 17.1875 207.660156 C 17.070312 207.632812 16.980469 207.601562 16.953125 207.542969 C 16.863281 207.484375 16.804688 207.335938 16.804688 207.160156 C 16.953125 204.105469 17.011719 200.992188 16.980469 197.910156 C 16.980469 196 16.921875 194.0625 16.863281 192.15625 L 16.835938 191.304688 L 14.488281 191.066406 L 14.285156 191.890625 C 13.375 195.589844 12.640625 199.378906 12.140625 203.136719 C 11.9375 204.546875 11.789062 205.957031 11.644531 207.367188 C 11.613281 207.601562 11.527344 207.808594 11.410156 207.984375 C 11.144531 208.425781 10.675781 208.6875 10.53125 208.660156 C 10.5 208.660156 10.351562 208.570312 10.175781 208.1875 C 10.03125 207.894531 10.058594 207.632812 10.117188 206.867188 L 10.117188 206.75 C 10.175781 205.898438 10.234375 204.988281 10.265625 204.078125 C 10.53125 201.375 10.882812 198.617188 11.292969 195.882812 C 11.527344 194.328125 11.761719 192.769531 12.054688 191.214844 L 12.199219 190.363281 L 9.824219 189.628906 L 9.472656 190.421875 C 8.152344 193.300781 6.890625 196.265625 5.75 199.261719 C 5.191406 200.671875 4.664062 202.140625 4.136719 203.578125 C 3.988281 204.019531 3.667969 204.371094 3.285156 204.488281 C 3.078125 204.546875 2.933594 204.546875 2.902344 204.519531 C 2.816406 204.460938 2.699219 204.28125 2.582031 203.578125 C 2.433594 202.492188 2.875 201.582031 3.019531 201.257812 C 3.636719 199.9375 3.988281 198.554688 4.339844 197.207031 C 4.546875 196.414062 4.722656 195.707031 4.957031 194.972656 C 5.984375 191.832031 6.511719 190.273438 6.804688 188.367188 C 7.1875 186.164062 7.246094 184.226562 7.246094 182.992188 C 7.246094 182.40625 7.214844 181.789062 7.1875 181.199219 L 7.070312 179 L 4.691406 181.375 L 4.78125 181.875 C 4.867188 182.289062 5.160156 184.34375 3.929688 185.578125 C 3.253906 186.222656 2.464844 186.515625 2.316406 186.429688 C 2.171875 186.339844 1.996094 185.695312 2.171875 185.078125 C 2.171875 185.019531 2.199219 184.988281 2.199219 184.960938 C 2.464844 184.136719 2.609375 183.375 2.640625 182.609375 C 2.667969 182.109375 2.726562 181.613281 2.902344 181.140625 C 2.933594 181.023438 2.992188 180.90625 3.050781 180.789062 C 3.429688 179.910156 3.695312 179.058594 3.871094 178.382812 C 4.046875 177.707031 4.339844 177.117188 4.691406 176.5625 C 5.042969 176.0625 5.457031 175.621094 8.09375 173.769531 C 9.152344 173.035156 10.234375 172.300781 11.320312 171.597656 L 11.671875 171.363281 L 11.730469 170.921875 C 11.9375 169.628906 12.289062 167.484375 12.730469 164.84375 L 13.316406 161.289062 C 14.226562 155.828125 14.3125 155.242188 14.460938 153.917969 C 14.664062 151.890625 14.636719 150.894531 14.636719 149.632812 C 14.605469 148.367188 14.605469 146.8125 14.78125 143.523438 C 15.015625 139.292969 15.105469 137.148438 15.574219 134.949219 C 15.925781 133.332031 16.25 132.246094 18.566406 125.960938 C 19.5625 123.257812 20.589844 120.527344 21.617188 117.855469 L 21.675781 117.738281 L 21.675781 117.589844 C 22.054688 113.15625 22.554688 108.664062 23.199219 104.257812 C 23.667969 100.910156 24.226562 97.535156 24.84375 94.214844 L 24.871094 94.039062 L 24.84375 93.832031 C 24.460938 92.101562 24.226562 90.308594 24.136719 88.546875 C 23.902344 84.671875 23.433594 76.566406 28.421875 69.8125 C 31.589844 65.523438 35.753906 63.320312 37.980469 62.382812 C 39.625 61.675781 40.621094 61.5 41.882812 61.238281 C 43.347656 60.941406 45.195312 60.589844 48.511719 59.296875 C 52.089844 57.917969 54.847656 56.480469 57.398438 54.628906 C 58.628906 53.746094 59.804688 52.777344 60.917969 51.722656 L 61.179688 51.488281 L 61.210938 51.132812 C 61.621094 47.933594 61.710938 44.671875 61.535156 41.441406 C 61.386719 39.210938 61.121094 36.980469 60.683594 34.777344 L 60.359375 33.132812 L 59.097656 34.1875 C 58.980469 34.277344 58.863281 34.335938 58.777344 34.335938 C 58.484375 34.367188 58.132812 34.070312 57.957031 33.894531 C 57.632812 33.601562 57.542969 33.335938 57.222656 32.28125 C 57.132812 32.015625 57.046875 31.753906 56.929688 31.398438 C 56.722656 30.753906 56.546875 30.285156 56.402344 29.871094 C 56.109375 29.050781 55.929688 28.550781 55.753906 27.640625 C 55.550781 26.613281 55.609375 26.347656 55.695312 26.171875 C 55.871094 25.761719 56.253906 25.351562 56.488281 25.378906 L 58.542969 26.816406 C 58.628906 25.847656 58.628906 24.910156 58.511719 23.941406 C 58.25 21.796875 58.25 19.652344 58.484375 17.539062 C 58.746094 15.160156 59.039062 12.722656 60.507812 10.050781 C 61.269531 8.667969 64.171875 4.03125 69.597656 2.679688 C 70.683594 2.414062 72.152344 2.296875 73.351562 2.328125 C 73.410156 2.328125 73.46875 2.328125 73.5 2.328125 C 73.558594 2.328125 73.617188 2.328125 73.648438 2.328125 C 74.847656 2.296875 76.316406 2.414062 77.402344 2.679688 C 82.855469 4.03125 85.730469 8.640625 86.492188 10.050781 C 87.960938 12.722656 88.222656 15.160156 88.515625 17.539062 C 88.75 19.652344 88.75 21.796875 88.488281 23.941406 C 88.371094 24.878906 88.339844 25.847656 88.457031 26.816406 L 90.570312 25.496094 C 90.773438 25.46875 91.15625 25.847656 91.363281 26.289062 C 91.449219 26.464844 91.507812 26.730469 91.304688 27.757812 C 91.128906 28.667969 90.949219 29.167969 90.65625 29.988281 C 90.511719 30.402344 90.335938 30.871094 90.128906 31.515625 C 90.011719 31.839844 89.925781 32.132812 89.835938 32.398438 C 89.515625 33.457031 89.425781 33.71875 89.101562 34.011719 C 88.957031 34.160156 88.605469 34.484375 88.3125 34.453125 C 88.195312 34.453125 88.105469 34.394531 87.988281 34.308594 L 86.699219 33.25 L 86.375 34.894531 C 85.964844 37.097656 85.671875 39.328125 85.523438 41.5625 C 85.320312 44.789062 85.4375 48.050781 85.847656 51.25 L 85.90625 51.605469 L 86.171875 51.839844 C 87.285156 52.867188 88.457031 53.835938 89.691406 54.746094 C 92.242188 56.597656 95 58.035156 98.578125 59.414062 C 101.921875 60.707031 103.738281 61.058594 105.207031 61.355469 C 106.464844 61.589844 107.492188 61.792969 109.105469 62.5 C 111.304688 63.4375 115.5 65.640625 118.667969 69.929688 C 123.652344 76.683594 123.15625 84.757812 122.949219 88.664062 C 122.832031 90.457031 122.597656 92.21875 122.246094 93.953125 L 122.214844 94.15625 L 122.246094 94.332031 C 122.863281 97.652344 123.417969 101.027344 123.886719 104.375 C 124.503906 108.78125 125.03125 113.273438 125.414062 117.710938 L 125.414062 117.855469 L 125.472656 117.972656 C 126.46875 120.644531 127.496094 123.378906 128.523438 126.078125 C 130.839844 132.363281 131.191406 133.449219 131.515625 135.066406 C 131.984375 137.269531 132.070312 139.410156 132.304688 143.640625 C 132.480469 146.929688 132.453125 148.515625 132.453125 149.75 C 132.421875 151.011719 132.421875 151.980469 132.628906 154.035156 C 132.746094 155.359375 132.863281 155.945312 133.773438 161.40625 L 134.359375 164.960938 C 134.800781 167.605469 135.152344 169.777344 135.386719 171.039062 L 135.445312 171.480469 L 135.796875 171.714844 C 136.882812 172.421875 137.964844 173.152344 139.023438 173.886719 C 141.660156 175.738281 142.074219 176.179688 142.425781 176.679688 C 142.804688 177.207031 143.070312 177.824219 143.246094 178.5 C 143.421875 179.175781 143.6875 180.054688 144.066406 180.90625 C 144.125 181.023438 144.15625 181.140625 144.183594 181.257812 C 144.359375 181.730469 144.449219 182.230469 144.449219 182.726562 C 144.476562 183.492188 144.59375 184.253906 144.886719 185.078125 C 144.917969 185.105469 144.917969 185.164062 144.917969 185.195312 C 145.0625 185.839844 144.917969 186.457031 144.769531 186.546875 C 144.625 186.632812 143.804688 186.339844 143.15625 185.695312 C 141.925781 184.488281 142.21875 182.40625 142.308594 181.992188 L 142.394531 181.496094 L 140.019531 179.117188 L 139.902344 181.316406 C 139.871094 181.90625 139.84375 182.492188 139.84375 183.109375 C 139.84375 184.34375 139.929688 186.28125 140.285156 188.484375 C 140.605469 190.394531 141.105469 191.949219 142.132812 195.089844 C 142.367188 195.824219 142.542969 196.53125 142.746094 197.324219 C 143.097656 198.675781 143.449219 200.054688 144.066406 201.375 C 144.097656 201.609375 144.535156 202.550781 144.390625 203.636719 Z M 144.390625 203.636719 " fill-opacity="1" fill-rule="nonzero"/><path stroke-linecap="butt" transform="matrix(0.753086, 0, 0, 0.75, 86.840418, 40.848221)" fill="none" stroke-linejoin="miter" d="M -0.000762525 0.999248 L 60.764802 0.999248 " stroke="#ffffff" stroke-width="2" stroke-opacity="1" stroke-miterlimit="4"/><path stroke-linecap="butt" transform="matrix(0.751601, 0, 0, 0.75, 102.307284, 146.392841)" fill="none" stroke-linejoin="miter" d="M 0.00174237 1.002254 L 109.767364 1.002254 " stroke="#ffffff" stroke-width="2" stroke-opacity="1" stroke-miterlimit="4"/><path stroke-linecap="butt" transform="matrix(0.751601, 0, 0, 0.75, 125.407175, 107.938793)" fill="none" stroke-linejoin="miter" d="M -0.00123026 0.998276 L 109.769589 0.998276 " stroke="#ffffff" stroke-width="2" stroke-opacity="1" stroke-miterlimit="4"/><path stroke-linecap="butt" transform="matrix(0.751601, 0, 0, 0.75, 102.307284, 284.023575)" fill="none" stroke-linejoin="miter" d="M 0.00174237 0.999817 L 109.767364 0.999817 " stroke="#ffffff" stroke-width="2" stroke-opacity="1" stroke-miterlimit="4"/></svg>